<svg data-v-423bf9ae="" xmlns="http://www.w3.org/2000/svg" viewBox="0 0 1114.2427681924628 193" class="fontAboveSlogan"><!----><!----><!----><g data-v-423bf9ae="" id="a1e4cc51-5a29-4b85-9234-82f81a3c1616" fill="black" transform="matrix(11.834319125937768,0,0,11.834319125937768,199.50768362081266,-43.95372550923524)"><path d="M2.48 13.75L1.20 13.75L1.20 3.95L2.66 3.95L4.10 9.56L4.10 9.56Q4.28 10.25 4.33 10.56L4.33 10.56L4.33 10.56Q4.40 10.08 4.55 9.56L4.55 9.56L6.02 3.95L7.42 3.95L7.42 13.75L6.15 13.75L6.15 8.01L6.15 8.01Q6.15 7.41 6.17 7.17L6.17 7.17L6.17 7.17Q6.15 7.25 6.06 7.55L6.06 7.55L6.06 7.55Q5.98 7.84 5.94 8.01L5.94 8.01L4.40 13.75L4.23 13.75L2.69 8.01L2.69 8.01Q2.67 7.95 2.45 7.17L2.45 7.17L2.45 7.17Q2.48 7.64 2.48 8.01L2.48 8.01L2.48 13.75ZM16.14 13.75L9.83 13.75L9.83 3.95L15.83 3.95L15.83 5.31L11.27 5.31L11.27 8.01L14.31 8.01L14.31 9.37L11.27 9.37L11.27 12.38L16.14 12.38L16.14 13.75ZM19.81 13.75L18.45 13.75L18.45 3.95L19.84 3.95L23.04 10.40L23.04 10.40Q23.24 10.77 23.34 11.00L23.34 11.00L23.34 11.00Q23.31 10.47 23.31 10.40L23.31 10.40L23.31 3.95L24.67 3.95L24.67 13.75L23.34 13.75L20.09 7.32L20.09 7.32Q20.06 7.27 20.00 7.14L20.00 7.14L20.00 7.14Q19.94 7.01 19.88 6.90L19.88 6.90L19.88 6.90Q19.82 6.79 19.78 6.71L19.78 6.71L19.78 6.71Q19.81 6.93 19.81 7.31L19.81 7.31L19.81 13.75ZM29.40 13.75L27.08 13.75L27.08 3.95L29.46 3.95L29.46 3.95Q30.37 3.95 31.09 4.23L31.09 4.23L31.09 4.23Q31.82 4.51 32.30 4.97L32.30 4.97L32.30 4.97Q32.79 5.43 33.11 6.07L33.11 6.07L33.11 6.07Q33.43 6.71 33.57 7.40L33.57 7.40L33.57 7.40Q33.71 8.09 33.71 8.85L33.71 8.85L33.71 8.85Q33.71 9.56 33.59 10.22L33.59 10.22L33.59 10.22Q33.46 10.88 33.15 11.54L33.15 11.54L33.15 11.54Q32.83 12.19 32.35 12.67L32.35 12.67L32.35 12.67Q31.88 13.15 31.12 13.45L31.12 13.45L31.12 13.45Q30.35 13.75 29.40 13.75L29.40 13.75ZM28.50 5.28L28.50 12.40L29.51 12.40L29.51 12.40Q30.25 12.40 30.80 12.09L30.80 12.09L30.80 12.09Q31.35 11.77 31.65 11.24L31.65 11.24L31.65 11.24Q31.95 10.71 32.09 10.12L32.09 10.12L32.09 10.12Q32.23 9.52 32.23 8.85L32.23 8.85L32.23 8.85Q32.23 7.36 31.58 6.32L31.58 6.32L31.58 6.32Q30.94 5.28 29.67 5.28L29.67 5.28L28.50 5.28ZM41.73 13.75L35.70 13.75L35.70 3.95L37.14 3.95L37.14 12.36L41.73 12.36L41.73 13.75ZM46.86 7.85L46.58 3.95L48.29 3.95L47.99 7.85L46.86 7.85ZM56.15 13.92L56.15 13.92L56.15 13.92Q54.99 13.92 54.10 13.27L54.10 13.27L54.10 13.27Q53.20 12.61 52.84 11.58L52.84 11.58L54.17 11.09L54.17 11.09Q54.46 11.76 55.01 12.17L55.01 12.17L55.01 12.17Q55.57 12.57 56.25 12.57L56.25 12.57L56.25 12.57Q56.97 12.57 57.38 12.19L57.38 12.19L57.38 12.19Q57.79 11.82 57.79 11.10L57.79 11.10L57.79 11.10Q57.79 10.47 57.26 10.02L57.26 10.02L57.26 10.02Q56.73 9.56 55.80 9.16L55.80 9.16L55.80 9.16Q55.22 8.90 54.85 8.69L54.85 8.69L54.85 8.69Q54.49 8.48 54.04 8.13L54.04 8.13L54.04 8.13Q53.59 7.78 53.38 7.32L53.38 7.32L53.38 7.32Q53.16 6.86 53.16 6.27L53.16 6.27L53.16 6.27Q53.16 5.22 53.95 4.50L53.95 4.50L53.95 4.50Q54.74 3.78 56.04 3.78L56.04 3.78L56.04 3.78Q57.08 3.78 57.83 4.31L57.83 4.31L57.83 4.31Q58.58 4.84 58.81 5.68L58.81 5.68L57.51 6.12L57.51 6.12Q57.32 5.68 56.92 5.40L56.92 5.40L56.92 5.40Q56.52 5.11 55.97 5.11L55.97 5.11L55.97 5.11Q55.37 5.11 54.99 5.43L54.99 5.43L54.99 5.43Q54.61 5.74 54.61 6.27L54.61 6.27L54.61 6.27Q54.61 6.55 54.75 6.78L54.75 6.78L54.75 6.78Q54.88 7.00 55.17 7.20L55.17 7.20L55.17 7.20Q55.47 7.41 55.71 7.53L55.71 7.53L55.71 7.53Q55.94 7.64 56.41 7.85L56.41 7.85L56.41 7.85Q56.43 7.87 56.45 7.88L56.45 7.88L56.45 7.88Q56.46 7.88 56.49 7.89L56.49 7.89L56.49 7.89Q56.52 7.90 56.53 7.91L56.53 7.91L56.53 7.91Q57.09 8.18 57.48 8.41L57.48 8.41L57.48 8.41Q57.88 8.64 58.32 9.02L58.32 9.02L58.32 9.02Q58.77 9.39 59.01 9.91L59.01 9.91L59.01 9.91Q59.25 10.43 59.25 11.06L59.25 11.06L59.25 11.06Q59.25 12.38 58.37 13.15L58.37 13.15L58.37 13.15Q57.48 13.92 56.15 13.92Z"></path></g><!----><!----><g data-v-423bf9ae="" id="499f7000-a18f-44a6-ac8d-449e898583e4" fill="black" transform="matrix(6.018054576957888,0,0,6.018054576957888,-0.6018119979281664,115.54764639810446)"><path d="M0.10 3.44C0.10 3.68 0.18 3.70 0.35 3.70L0.76 3.70C0.88 3.70 3.14 7.74 3.54 8.50C3.60 8.60 3.64 8.65 3.64 8.81C3.64 10.50 3.63 12.18 3.50 12.18L2.79 12.18C2.56 12.18 2.52 12.19 2.52 12.39C2.52 12.63 2.53 12.68 2.73 12.68C2.93 12.68 3.74 12.64 4.33 12.64C5.15 12.64 5.68 12.68 6.01 12.68C6.17 12.68 6.20 12.61 6.20 12.40C6.20 12.24 6.17 12.18 6.01 12.18L5.04 12.18C4.94 12.18 4.91 9.72 4.91 8.22C4.91 8.18 4.91 8.15 4.96 8.09C5.50 7.22 7.45 3.70 7.52 3.70L7.99 3.70C8.16 3.70 8.26 3.68 8.26 3.44C8.26 3.22 8.18 3.19 7.99 3.19C7.77 3.19 7.53 3.23 6.93 3.23C6.34 3.23 6.01 3.19 5.84 3.19C5.64 3.19 5.60 3.25 5.60 3.49C5.60 3.68 5.67 3.70 5.89 3.70L6.62 3.70C6.64 3.70 6.65 3.71 6.65 3.74C6.65 4.05 5.08 6.99 4.70 7.71C4.59 7.92 4.59 7.88 4.48 7.67C4.07 6.89 2.79 4.56 2.49 3.85C2.44 3.71 2.42 3.70 2.60 3.70L3.43 3.70C3.65 3.70 3.68 3.68 3.68 3.49C3.68 3.25 3.64 3.19 3.49 3.19C3.25 3.19 2.63 3.23 1.83 3.23C1.02 3.23 0.53 3.19 0.35 3.19C0.17 3.19 0.10 3.21 0.10 3.44ZM15.39 8.15C15.39 11.17 17.72 12.80 19.98 12.80C22.76 12.80 24.74 10.89 24.74 8.06C24.74 5.33 22.99 3.11 20.19 3.11C17.58 3.11 15.39 5.10 15.39 8.15ZM16.79 7.77C16.79 5.64 18.07 3.58 20.05 3.58C22.29 3.58 23.37 5.81 23.37 7.94C23.37 10.08 22.26 12.32 19.99 12.32C18.00 12.32 16.79 10.28 16.79 7.77ZM32.84 3.51C32.84 3.75 32.93 3.77 33.10 3.77L33.63 3.77C33.68 3.77 33.68 4.12 33.68 4.55C33.68 5.66 33.67 8.96 33.67 9.42C33.67 11.13 33.92 12.80 36.78 12.80C37.86 12.80 39.02 12.38 39.68 12.00C39.93 11.86 40.22 11.72 40.31 11.72C40.57 11.72 40.84 12.74 41.17 12.74C41.50 12.74 41.51 12.35 41.51 12.25C41.51 11.96 41.57 10.08 41.61 8.16C41.66 6.12 41.65 3.77 41.76 3.77L42.08 3.77C42.31 3.77 42.38 3.75 42.38 3.56C42.38 3.32 42.34 3.26 42.14 3.26C42 3.26 41.47 3.30 41.05 3.30C40.63 3.30 39.83 3.26 39.61 3.26C39.42 3.26 39.33 3.28 39.33 3.51C39.33 3.75 39.44 3.77 39.61 3.77L40.31 3.77C40.38 3.77 40.39 4.30 40.39 4.87L40.39 9.14C40.39 11.19 40.39 11.12 40.05 11.34C39.66 11.61 38.85 12.08 37.67 12.08C35.70 12.08 34.90 11.17 34.90 9.41C34.90 8.82 34.97 3.77 35.08 3.77L35.99 3.77C36.22 3.77 36.26 3.75 36.26 3.56C36.26 3.32 36.25 3.26 36.05 3.26C35.73 3.26 34.85 3.30 34.43 3.30C34.01 3.30 33.32 3.26 33.10 3.26C32.91 3.26 32.84 3.28 32.84 3.51ZM50.41 3.51C50.41 3.72 50.48 3.79 50.68 3.79L51.49 3.77C51.59 3.77 51.63 6.61 51.63 8.55L51.63 10.42C51.63 11.30 51.62 12.18 51.58 12.18L50.97 12.18C50.75 12.18 50.68 12.19 50.68 12.39C50.68 12.63 50.72 12.68 50.92 12.68C51.04 12.68 51.87 12.64 52.29 12.64C52.71 12.64 53.48 12.68 53.80 12.68C53.97 12.68 54.00 12.61 54.00 12.40C54.00 12.24 53.97 12.18 53.80 12.18L52.99 12.18C52.92 12.18 52.84 9.18 52.84 8.37C52.84 8.30 52.84 8.26 52.95 8.26C53.34 8.26 53.94 8.27 54.24 8.27C56.48 8.32 56.62 10.00 56.62 11.68L56.62 12.49C56.62 12.61 56.67 12.64 56.77 12.64C56.77 12.64 58.21 12.68 58.69 12.68C58.86 12.68 58.91 12.64 58.91 12.53C58.91 12.24 58.86 12.18 58.70 12.18L58.06 12.18C57.96 12.18 57.93 12.14 57.90 11.31C57.82 8.99 56.45 8.34 55.54 8.05C55.40 8.01 55.43 8.01 55.54 7.95C56.13 7.69 57.44 6.94 57.44 5.63C57.44 3.63 55.75 3.21 54.35 3.21C54.03 3.21 52.74 3.29 52.32 3.29C51.90 3.29 50.92 3.26 50.69 3.26C50.51 3.26 50.41 3.28 50.41 3.51ZM52.84 7.80L52.84 4.40C52.84 4.05 52.86 3.68 52.91 3.68C53.12 3.65 53.40 3.65 53.62 3.65C54.92 3.65 56.17 4.47 56.17 5.82C56.17 6.99 55.62 7.57 54.96 7.88C54.92 7.90 54.88 7.90 54.81 7.90C54.33 7.88 53.62 7.88 53.02 7.87C52.85 7.87 52.84 7.85 52.84 7.80ZM76.26 7.91C76.26 11.31 78.62 12.87 81.21 12.87C82.99 12.87 84.77 11.90 84.81 11.59C84.98 10.29 85.04 9.70 85.04 9.66C85.04 9.56 84.99 9.52 84.83 9.51C84.77 9.51 84.71 9.49 84.67 9.49C84.56 9.49 84.50 9.53 84.48 9.70L84.29 11.33C84.28 11.45 83.17 12.24 81.61 12.24C79.48 12.24 77.77 10.29 77.77 7.94C77.77 5.42 79.20 3.54 81.20 3.54C83.05 3.54 84.39 5.01 84.39 5.17C84.39 5.29 84.34 6.40 84.34 6.45C84.34 6.59 84.38 6.64 84.64 6.64C84.84 6.64 84.91 6.62 84.91 6.44C84.91 5.73 84.97 3.92 84.97 3.67C84.97 3.47 84.85 3.44 84.64 3.44C84.42 3.44 84.39 3.50 84.39 3.67L84.39 4.05C84.39 4.16 84.35 4.16 84.22 4.06C83.94 3.86 82.96 3.04 81.30 3.04C78.46 3.04 76.26 4.96 76.26 7.91ZM93.42 12.39C93.42 12.63 93.42 12.68 93.62 12.68C93.94 12.68 94.88 12.64 95.30 12.64C95.72 12.64 96.54 12.68 96.87 12.68C97.03 12.68 97.03 12.61 97.03 12.40C97.03 12.24 97.03 12.18 96.87 12.18L95.94 12.18C95.86 12.18 95.82 9.93 95.82 8.20C95.82 8.01 95.82 8.01 95.94 8.01L101.18 8.01C101.25 8.01 101.26 8.01 101.26 8.18L101.26 9.91C101.26 11.05 101.25 12.18 101.19 12.18L100.42 12.18C100.20 12.18 100.16 12.19 100.16 12.39C100.16 12.63 100.17 12.68 100.37 12.68C100.69 12.68 101.53 12.64 101.95 12.64C102.37 12.64 102.96 12.68 103.28 12.68C103.45 12.68 103.46 12.61 103.46 12.40C103.46 12.24 103.45 12.18 103.28 12.18L102.54 12.18C102.49 12.18 102.48 9.27 102.48 7.04C102.48 5.40 102.48 3.70 102.52 3.70L103.14 3.70C103.36 3.70 103.40 3.68 103.40 3.49C103.40 3.25 103.39 3.19 103.19 3.19C103.05 3.19 102.42 3.23 101.84 3.23C101.16 3.23 100.56 3.19 100.34 3.19C100.14 3.19 100.11 3.22 100.11 3.44C100.11 3.67 100.18 3.70 100.35 3.70L101.15 3.70C101.21 3.70 101.26 4.79 101.26 5.71L101.26 7.42C101.26 7.59 101.26 7.59 101.09 7.59L95.98 7.59C95.82 7.59 95.82 7.59 95.82 7.38C95.82 6.96 95.80 6.23 95.80 5.53C95.80 4.66 95.82 3.70 95.87 3.70L96.64 3.70C96.87 3.70 96.91 3.68 96.91 3.49C96.91 3.25 96.89 3.19 96.70 3.19C96.38 3.19 95.79 3.23 95.19 3.23C94.60 3.23 94.11 3.19 93.88 3.19C93.70 3.19 93.60 3.21 93.60 3.44C93.60 3.68 93.72 3.70 93.88 3.70L94.50 3.70C94.56 3.70 94.57 5.59 94.57 7.18L94.57 8.61C94.57 10.08 94.56 12.18 94.49 12.18L93.67 12.18C93.45 12.18 93.42 12.19 93.42 12.39ZM111.57 8.15C111.57 11.17 113.90 12.80 116.16 12.80C118.94 12.80 120.92 10.89 120.92 8.06C120.92 5.33 119.17 3.11 116.37 3.11C113.76 3.11 111.57 5.10 111.57 8.15ZM112.97 7.77C112.97 5.64 114.25 3.58 116.23 3.58C118.47 3.58 119.55 5.81 119.55 7.94C119.55 10.08 118.44 12.32 116.17 12.32C114.18 12.32 112.97 10.28 112.97 7.77ZM128.88 12.39C128.88 12.63 128.93 12.68 129.12 12.68C129.44 12.68 130.20 12.64 130.91 12.64C131.57 12.64 132.37 12.68 132.59 12.68C132.76 12.68 132.79 12.61 132.79 12.40C132.79 12.24 132.76 12.18 132.59 12.18L131.63 12.18C131.53 12.18 131.50 9.55 131.50 7.76L131.50 5.87C131.50 5.14 131.53 3.70 131.63 3.70L132.54 3.70C132.76 3.70 132.79 3.68 132.79 3.49C132.79 3.25 132.76 3.19 132.59 3.19C132.27 3.19 131.60 3.23 130.94 3.23C130.13 3.23 129.42 3.19 129.19 3.19C129.01 3.19 128.94 3.21 128.94 3.44C128.94 3.68 129.02 3.70 129.19 3.70L130.12 3.70C130.16 3.70 130.23 4.79 130.23 5.71L130.23 7.08C130.23 8.92 130.21 12.18 130.10 12.18L129.18 12.18C128.95 12.18 128.88 12.19 128.88 12.39ZM140.76 7.91C140.76 11.31 143.12 12.87 145.71 12.87C147.49 12.87 149.27 11.90 149.31 11.59C149.48 10.29 149.53 9.70 149.53 9.66C149.53 9.56 149.49 9.52 149.32 9.51C149.27 9.51 149.21 9.49 149.17 9.49C149.06 9.49 149.00 9.53 148.97 9.70L148.79 11.33C148.78 11.45 147.67 12.24 146.10 12.24C143.98 12.24 142.27 10.29 142.27 7.94C142.27 5.42 143.70 3.54 145.70 3.54C147.55 3.54 148.89 5.01 148.89 5.17C148.89 5.29 148.83 6.40 148.83 6.45C148.83 6.59 148.88 6.64 149.14 6.64C149.34 6.64 149.41 6.62 149.41 6.44C149.41 5.73 149.46 3.92 149.46 3.67C149.46 3.47 149.35 3.44 149.14 3.44C148.92 3.44 148.89 3.50 148.89 3.67L148.89 4.05C148.89 4.16 148.85 4.16 148.72 4.06C148.44 3.86 147.46 3.04 145.80 3.04C142.95 3.04 140.76 4.96 140.76 7.91ZM157.92 12.39C157.92 12.63 157.95 12.68 158.14 12.68C158.47 12.68 159.43 12.64 159.85 12.64C160.27 12.64 164.78 12.68 165.10 12.68C165.23 12.68 165.38 12.66 165.38 12.49C165.38 12.07 165.42 11.23 165.42 10.53C165.42 10.39 165.27 10.39 165.14 10.39C165.03 10.39 164.91 10.39 164.91 10.51C164.89 11.06 164.89 11.41 164.86 11.76C164.84 12.01 164.84 12.04 164.74 12.04C164.58 12.04 161.95 12.08 160.45 12.08C160.38 12.08 160.34 10.11 160.30 8.26C160.30 8.06 160.34 8.09 160.48 8.09L162.76 8.09C163.46 8.09 163.49 8.20 163.49 8.30L163.49 9.00C163.49 9.14 163.67 9.14 163.79 9.14C163.88 9.14 164.01 9.13 164.01 9.02C164.01 8.83 163.98 8.33 163.98 7.83C163.98 7.32 164.01 6.83 164.01 6.71C164.01 6.59 163.87 6.58 163.77 6.58C163.66 6.58 163.49 6.59 163.49 6.72L163.49 7.45C163.49 7.62 163.04 7.63 162.76 7.63L160.43 7.63C160.31 7.63 160.30 7.63 160.30 7.45C160.29 6.75 160.27 6.06 160.27 5.46C160.27 5.12 160.27 3.71 160.36 3.71C161.59 3.71 164.09 3.75 164.09 3.81C164.09 3.99 164.05 4.83 164.05 4.89C164.05 5.04 164.12 5.10 164.30 5.10C164.50 5.10 164.57 5.08 164.57 4.94C164.57 3.85 164.63 3.36 164.63 3.09C164.63 2.91 164.54 2.90 164.35 2.90C164.15 2.90 164.15 2.95 164.12 3.11C164.11 3.25 164.18 3.25 163.27 3.25C162.65 3.25 160.51 3.29 159.74 3.29C159.25 3.29 158.31 3.25 158.21 3.25C158.09 3.25 158.03 3.30 158.03 3.49C158.03 3.72 158.10 3.74 158.27 3.74L158.93 3.74C158.98 3.74 159.05 4.79 159.05 5.71C159.05 5.80 159.11 8.27 159.11 9.83L159.11 11.17C159.11 11.84 159.08 12.18 159.05 12.18L158.20 12.18C157.98 12.18 157.92 12.21 157.92 12.39ZM183.75 12.07C183.75 12.31 184.21 12.75 184.62 12.75C184.80 12.75 185.25 12.35 185.25 11.90C185.25 11.51 184.67 11.20 184.41 11.20C184.14 11.20 183.75 11.76 183.75 12.07ZM183.99 3.53C183.99 4.28 184.17 6.93 184.25 10.05C184.25 10.19 184.38 10.23 184.48 10.23C184.58 10.23 184.72 10.19 184.72 10.05C184.88 6.36 185.08 3.64 185.08 3.47C185.08 3.19 184.93 3.14 184.60 3.14C184.24 3.14 183.99 3.21 183.99 3.53Z"></path></g></svg>