<?xml version="1.0" standalone="no"?>
<!DOCTYPE svg PUBLIC "-//W3C//DTD SVG 20010904//EN"
 "http://www.w3.org/TR/2001/REC-SVG-20010904/DTD/svg10.dtd">
<svg version="1.0" xmlns="http://www.w3.org/2000/svg"
 width="200.000000pt" height="200.000000pt" viewBox="0 0 200.000000 200.000000"
 preserveAspectRatio="xMidYMid meet">

<g transform="translate(0.000000,200.000000) scale(0.100000,-0.100000)"
fill="#000000" stroke="none">
<path d="M1622 651 c8 -83 28 -86 31 -5 2 40 -1 49 -17 52 -17 4 -18 -1 -14
-47z"/>
<path d="M607 653 c-80 -3 -88 -6 -81 -21 5 -9 10 -72 12 -140 3 -103 1 -123
-12 -128 -40 -15 -7 -24 89 -24 l105 0 0 35 c0 38 -14 47 -23 15 -4 -17 -14
-20 -56 -20 -45 0 -51 3 -57 24 -3 13 -4 38 -2 57 3 29 7 34 31 37 17 2 37 -4
48 -14 18 -17 19 -16 19 20 0 34 -2 36 -20 26 -12 -6 -33 -10 -48 -8 -23 3
-27 8 -30 40 -5 54 12 78 53 78 32 0 65 -21 65 -41 0 -5 5 -9 10 -9 6 0 10 18
10 40 0 26 -4 39 -12 38 -7 -1 -53 -4 -101 -5z"/>
<path d="M1165 654 c-11 -3 -30 -7 -42 -10 -28 -6 -30 -24 -3 -24 19 0 20 -7
20 -119 0 -112 -1 -121 -22 -135 -20 -14 -20 -16 -4 -22 34 -13 177 3 205 23
82 61 77 223 -9 268 -33 17 -111 27 -145 19z m131 -58 c32 -32 34 -38 34 -101
0 -60 -3 -69 -29 -96 -23 -22 -39 -29 -69 -29 -27 0 -42 5 -46 16 -3 9 -6 67
-6 130 l0 114 41 0 c33 0 47 -6 75 -34z"/>
<path d="M1750 648 c-46 -25 -60 -87 -27 -126 6 -8 31 -24 56 -37 67 -33 87
-59 73 -90 -15 -33 -55 -42 -88 -20 -22 14 -25 22 -19 51 6 37 4 39 -26 24
-29 -16 -25 -64 7 -89 39 -31 117 -29 149 4 29 28 32 70 9 103 -8 12 -42 36
-75 52 -36 19 -59 37 -60 48 -3 47 9 62 52 62 35 0 53 -23 46 -60 -5 -25 -4
-28 11 -23 36 13 44 59 14 86 -25 23 -91 31 -122 15z"/>
<path d="M134 635 c18 -13 19 -24 13 -132 -6 -100 -10 -120 -27 -134 -24 -20
-16 -29 25 -29 40 0 46 6 34 34 -7 14 -8 56 -2 116 l8 93 41 -99 c23 -55 49
-100 57 -102 10 -2 28 29 58 100 l44 102 8 -98 c6 -82 5 -102 -8 -116 -23 -25
-19 -30 28 -30 53 0 60 6 42 34 -20 30 -32 225 -16 255 12 21 11 22 -24 19
-37 -3 -38 -4 -78 -100 -22 -54 -43 -98 -46 -98 -4 0 -25 44 -47 98 l-39 97
-45 3 c-41 2 -44 1 -26 -13z"/>
<path d="M770 641 c0 -5 7 -11 15 -15 22 -8 22 -251 0 -260 -29 -11 -14 -26
26 -26 39 0 41 2 33 23 -4 12 -9 67 -11 122 l-4 100 56 -80 c30 -44 69 -99 85
-122 16 -24 38 -43 47 -43 16 0 18 13 18 137 0 76 4 146 9 156 7 15 3 17 -33
17 -44 0 -50 -6 -26 -24 13 -9 15 -30 13 -110 l-3 -98 -78 116 c-75 110 -80
116 -113 116 -19 0 -34 -4 -34 -9z"/>
<path d="M1420 641 c0 -5 7 -11 15 -15 22 -8 22 -254 0 -262 -38 -15 -6 -24
85 -24 l100 0 0 35 c0 38 -14 47 -23 14 -5 -17 -12 -20 -54 -17 l-48 3 -3 108
c-2 80 1 116 12 138 l14 29 -49 0 c-27 0 -49 -4 -49 -9z"/>
</g>
</svg>
